<mxfile host="app.diagrams.net" modified="2023-05-22T18:37:33.686Z" agent="Mozilla/5.0 (Windows NT 10.0; Win64; x64) AppleWebKit/537.36 (KHTML, like Gecko) Chrome/113.0.0.0 Safari/537.36 Edg/113.0.1774.50" etag="KTfdXmDqw0DDDYn0rHb9" version="21.3.2" type="device">
  <diagram name="PÃ¡gina-1" id="_zFh4r-fSbNRbc60yMw6">
    <mxGraphModel dx="1139" dy="608" grid="1" gridSize="10" guides="1" tooltips="1" connect="1" arrows="1" fold="1" page="1" pageScale="1" pageWidth="827" pageHeight="1169" math="0" shadow="0">
      <root>
        <mxCell id="0" />
        <mxCell id="1" parent="0" />
        <mxCell id="H_GUMbo4r-GWsJ2kg9r3-1" value="" style="rounded=0;whiteSpace=wrap;html=1;" parent="1" vertex="1">
          <mxGeometry x="120" y="240" width="200" height="480" as="geometry" />
        </mxCell>
        <mxCell id="H_GUMbo4r-GWsJ2kg9r3-3" value="" style="endArrow=none;html=1;rounded=0;" parent="1" edge="1">
          <mxGeometry width="50" height="50" relative="1" as="geometry">
            <mxPoint x="120" y="320" as="sourcePoint" />
            <mxPoint x="320" y="320" as="targetPoint" />
            <Array as="points">
              <mxPoint x="220" y="320" />
            </Array>
          </mxGeometry>
        </mxCell>
        <mxCell id="wlm9aBcyxREOP3yCC78D-1" value="" style="rounded=0;whiteSpace=wrap;html=1;" vertex="1" parent="1">
          <mxGeometry x="120" y="520" width="200" height="200" as="geometry" />
        </mxCell>
        <mxCell id="wlm9aBcyxREOP3yCC78D-2" value="" style="rounded=0;whiteSpace=wrap;html=1;" vertex="1" parent="1">
          <mxGeometry x="440" y="240" width="200" height="80" as="geometry" />
        </mxCell>
        <mxCell id="wlm9aBcyxREOP3yCC78D-3" value="" style="rounded=0;whiteSpace=wrap;html=1;" vertex="1" parent="1">
          <mxGeometry x="440" y="320" width="200" height="80" as="geometry" />
        </mxCell>
        <mxCell id="wlm9aBcyxREOP3yCC78D-4" value="" style="endArrow=none;html=1;rounded=0;" edge="1" parent="1">
          <mxGeometry width="50" height="50" relative="1" as="geometry">
            <mxPoint x="350" y="239" as="sourcePoint" />
            <mxPoint x="420" y="239" as="targetPoint" />
          </mxGeometry>
        </mxCell>
        <mxCell id="wlm9aBcyxREOP3yCC78D-5" value="" style="endArrow=none;html=1;rounded=0;" edge="1" parent="1">
          <mxGeometry width="50" height="50" relative="1" as="geometry">
            <mxPoint x="360" y="335" as="sourcePoint" />
            <mxPoint x="420" y="385" as="targetPoint" />
          </mxGeometry>
        </mxCell>
        <mxCell id="wlm9aBcyxREOP3yCC78D-6" value="&lt;font style=&quot;font-size: 14px;&quot;&gt;0X0000&lt;/font&gt;" style="text;html=1;strokeColor=none;fillColor=none;align=center;verticalAlign=middle;whiteSpace=wrap;rounded=0;" vertex="1" parent="1">
          <mxGeometry x="50" y="700" width="80" height="30" as="geometry" />
        </mxCell>
        <mxCell id="wlm9aBcyxREOP3yCC78D-7" value="&lt;font style=&quot;font-size: 14px;&quot;&gt;0X7FFF&lt;/font&gt;" style="text;html=1;strokeColor=none;fillColor=none;align=center;verticalAlign=middle;whiteSpace=wrap;rounded=0;" vertex="1" parent="1">
          <mxGeometry x="50" y="520" width="80" height="30" as="geometry" />
        </mxCell>
        <mxCell id="wlm9aBcyxREOP3yCC78D-8" value="&lt;font style=&quot;font-size: 14px;&quot;&gt;0X8000&lt;/font&gt;" style="text;html=1;strokeColor=none;fillColor=none;align=center;verticalAlign=middle;whiteSpace=wrap;rounded=0;" vertex="1" parent="1">
          <mxGeometry x="50" y="490" width="80" height="30" as="geometry" />
        </mxCell>
        <mxCell id="wlm9aBcyxREOP3yCC78D-9" value="" style="rounded=0;whiteSpace=wrap;html=1;" vertex="1" parent="1">
          <mxGeometry x="120" y="320" width="200" height="50" as="geometry" />
        </mxCell>
        <mxCell id="wlm9aBcyxREOP3yCC78D-10" value="&lt;font style=&quot;font-size: 14px;&quot;&gt;0XFF80&lt;/font&gt;" style="text;html=1;strokeColor=none;fillColor=none;align=center;verticalAlign=middle;whiteSpace=wrap;rounded=0;" vertex="1" parent="1">
          <mxGeometry x="50" y="290" width="80" height="30" as="geometry" />
        </mxCell>
        <mxCell id="wlm9aBcyxREOP3yCC78D-11" value="&lt;font style=&quot;font-size: 14px;&quot;&gt;0XFF7F&lt;/font&gt;" style="text;html=1;strokeColor=none;fillColor=none;align=center;verticalAlign=middle;whiteSpace=wrap;rounded=0;" vertex="1" parent="1">
          <mxGeometry x="50" y="315" width="80" height="30" as="geometry" />
        </mxCell>
        <mxCell id="wlm9aBcyxREOP3yCC78D-12" value="&lt;font style=&quot;font-size: 14px;&quot;&gt;0XFF78&lt;/font&gt;" style="text;html=1;strokeColor=none;fillColor=none;align=center;verticalAlign=middle;whiteSpace=wrap;rounded=0;" vertex="1" parent="1">
          <mxGeometry x="50" y="360" width="80" height="30" as="geometry" />
        </mxCell>
        <mxCell id="wlm9aBcyxREOP3yCC78D-13" value="&lt;font style=&quot;font-size: 14px;&quot;&gt;0XFFFF&lt;/font&gt;" style="text;html=1;strokeColor=none;fillColor=none;align=center;verticalAlign=middle;whiteSpace=wrap;rounded=0;" vertex="1" parent="1">
          <mxGeometry x="50" y="210" width="80" height="50" as="geometry" />
        </mxCell>
        <mxCell id="wlm9aBcyxREOP3yCC78D-14" value="&lt;font style=&quot;font-size: 14px;&quot;&gt;0XFFFF&lt;/font&gt;" style="text;html=1;strokeColor=none;fillColor=none;align=center;verticalAlign=middle;whiteSpace=wrap;rounded=0;" vertex="1" parent="1">
          <mxGeometry x="640" y="210" width="80" height="50" as="geometry" />
        </mxCell>
        <mxCell id="wlm9aBcyxREOP3yCC78D-15" value="&lt;font style=&quot;font-size: 14px;&quot;&gt;0XFFC0&lt;/font&gt;" style="text;html=1;strokeColor=none;fillColor=none;align=center;verticalAlign=middle;whiteSpace=wrap;rounded=0;" vertex="1" parent="1">
          <mxGeometry x="640" y="290" width="80" height="30" as="geometry" />
        </mxCell>
        <mxCell id="wlm9aBcyxREOP3yCC78D-17" value="&lt;font style=&quot;font-size: 14px;&quot;&gt;0XFFBF&lt;/font&gt;" style="text;html=1;strokeColor=none;fillColor=none;align=center;verticalAlign=middle;whiteSpace=wrap;rounded=0;" vertex="1" parent="1">
          <mxGeometry x="640" y="300" width="80" height="50" as="geometry" />
        </mxCell>
        <mxCell id="wlm9aBcyxREOP3yCC78D-21" value="&lt;font style=&quot;font-size: 14px;&quot;&gt;0XFF80&lt;/font&gt;" style="text;html=1;strokeColor=none;fillColor=none;align=center;verticalAlign=middle;whiteSpace=wrap;rounded=0;" vertex="1" parent="1">
          <mxGeometry x="640" y="370" width="80" height="30" as="geometry" />
        </mxCell>
        <mxCell id="wlm9aBcyxREOP3yCC78D-22" value="" style="shape=image;verticalLabelPosition=bottom;labelBackgroundColor=default;verticalAlign=top;aspect=fixed;imageAspect=0;image=data:image/png,iVBORw0KGgoAAAANSUhEUgAAAQ0AAAAnCAYAAAAVUh3sAAAAAXNSR0IArs4c6QAAAARnQU1BAACxjwv8YQUAAAAJcEhZcwAAHYcAAB2HAY/l8WUAABo1SURBVHhe7d1VrCXFFgbgmhnc3d3d3T24e0LQBHuC8AIJcMML8MADIYFAIIGEBJgZ3N3d3d3dXe7lq8ya9O307u3nHO7tlVT22Xt3Vy35179WVe+Bcf/+W1IjjTTSSIcyfsprI4000khH0pBGI4000pU0pNFII410JQ1pNNJII11JQxqNNNJIV9KQRiONNNKVNKTRSCONdCWj8jsNSxp//vln+uOPP/L466+/pn4+bty4NH78+DTNNNPkMWHChPze52NN6Ev/H3/8Mf/dTsKOsM3wfizaNpISfvztt9/yq5hPN9102T981okEfszx+++/53k6lcCcda057bTTdh0Xa//88895bXg23/TTT5/nMm87CfuNwFK3cxBry61ffvklv5qrl3layaiQBkN++OGH9NZbb6VXX301v3755Zf5Mw6fccYZ07zzzpsWX3zxtNJKK6UlllgizTXXXNngsSYCzYZzzjkn/fTTTzlgVSJo9J9pppmyLUsuuWRaYYUV8ph55pnHpG0jKRLllVdeSffdd1967bXX0qKLLpq22mqrtPzyy6dZZpllylX1IhbI+9FHH02PPfZYnq+dBFHMMMMMae65586YW3HFFTPuZptttkwgnYr4X3XVVemZZ55JX331VY7zZpttltZaa620yCKLTLmqtbCb3o888kjOBXrRiR9WXXXVtPDCC0+5sl6+//779N5772Vd3n333Zxv5qHLmmuumX3bj4woaVD+iy++SG+88UZ68sknc7Ix7vPPP8/B/vXXX/M1EghQGMpRgshpK6+8ciYTFUiwx4IguYcffjgdeeSROVjB6mX9VCwgYBuSmGeeeTJxrLHGGmmjjTZKSy21VMfJ8b8oqiI/XnHFFTlxkOlBBx2U1l9//Zx8nQji+fbbb9O1116bbrzxxpx8fF6MR1Xn4DtxUayCOKy7zjrrpOWWWy4TfTmeZaH/xx9/nE4//fRMWt98800mnV122SXtuOOOOcbtOhd233DDDemaa67J9xP67LHHHnkO5NNuDiKnkO8ll1yScw0mF1poobT//vunbbfdNudTPzLhX3/LlL+HJpRWgT/77LP01FNPpeuvvz6zIOL46KOPcuJF0AxOkYC+e+GFF9Lbb7+dvv7668z6EktViMrczoHDFnbplC6++OKso/dIAWC8hk2hs++/++679P777+fK8s477+RrkWEkx2jbNBqiS+BHif7yyy+nWWedNROqBJa0nYiCI3lhzHjppZdygZljjjkySfOzYe4YYiQ2SEGiSjjrf/LJJ/nz+eefP80+++z5+1ZxgW+xf/HFF9PkyZNzTHUdumd4XWCBBdKyyy7bdqvlPl0K0lFI4UQxtb4CY9TpQfiAH2+77bbsyw8++CDrYu1VVlkl6zHffPNNubo3GRHSYIi93p133pkuv/zyXE04WZJoPzfffPO09dZbp+222y5tscUWabXVVsuOlmTIA9lwhCQTdPfNOeecbR04EoIEtICTJk3KuiyzzDKZzVWYLbfcMm288cZ5bLDBBmnttdfOba/qwSdABSg6LMDWSY0Fm0ZDkAY/ShqJC9gqfS+kodBE4qvwe++9dzrwwAPT9ttvn2NTHHC3ySabpNVXXz2vI8Hc9+mnn+bYIhYxhcV2CS9RJXyQjS2K+xDW0ksv3XYbqpAgOvrDhPUJvWzRdaPmqMOH+5DXddddl/3JHt2WvLE1kW9jnjQYznmPP/54uvrqq/MrwwBip512SrvuumsmDSzIsfZbHKQtZCDQRHXGvqoB5l1wwQUzi48l0gAqgQXCTTfddKr+BptUCgDUeiMJHdaHH36YiVEgN9xwwzG19RpJGQZp2C4gA4Sttdeim7c8FCi4Ex/YUtBgTRwUKNWZDmJTJQqiRL3pppvydsD11pWwvkMi7LCWw8hWmC2ShmsQBNLSydBxscUWyx0pEmgl8PTEE0+k+++/P8/BJ8Y/ijQ4zvaCQ++5556850QIu+22W2Z51ZdDBSdaRwkVwUQOgudgyHZFFRBATO4+juFU+1kdiWsE3ZYAEN2nakT1UN3pIGHNGwddvZJPmTSQg/2wANGRTQYwsoudPnctItQ9IVVnN8iT3uXDt9jescWZUNjDXvaYh/1s6MQeMUG+7jfM5zVIWUsMaNFOF+dC+Pyn7eVn74GYXnQyzEEfn5vD/eZzLVutFfqby+e+N+ezzz47UNJwFoYwELU4xHaxOCSn+OgIdALsct4GP7pCHaDO1rVVwhZb7TvuuCPfK/66y8AsrMExWxS6VklfJA1+QxAOUPmMflFQ3V+OL4wQh7/OhmzPFDA+4eNBksbQSxqFJQbCwIICs8022+T2HRtLpCqAAysCYaQ20raFAwVCgDhGMDiLY1RrjnIAduutt05NBk68++678+GY/aazFN+7lj7ALSFHStgKmMCo8gGDzySOqhTBD/E+yO/NN9/MdrMRSRm6N20xnwAdQmBP1TyRVOxW0W0XtbH8YstoPudNDtGAVwLwj3tjPnqopjfffHP2Y5xLOcRTGK688so8x9NPP50JjS7WRUSui+Sit/XiwDJaadeOlogLQrc9RlR8Bb9BomUJvyA7PkG6ugqJ7TwGWSEaOORPmDRn0Z+tBGnQRaLzIQK0DoxU4dV8dHRNnKkgu36flFRJ58+TehTGchigMlaXscMOO2S2q9vfhUgoVVjFEAisbs7nn38+/60bcQ0wa8vuuuuu3EZqEbWMrotqHlURGXHmeuutlwnJOcNIP7mgC529almRh2pQrkKSFgjYhjCAk/3xpIYP3aeS2eJpxT2iA9boOgjf8wGyfPDBB7NvJLGkAGSAQ9SqLmIHfNXSmQDiDr0kEB0QA7+Lp/fm5Gc2WXv33XfPcRMfnYc4IKPnnnsuYyG6kYiFeLFF4o2mIOhiYpY7raLwv8KF8BA62+FUhWc3vykMOgf2u07hY3M74W+dhvluv/32HDv3BzEVY0vED8krHK61Bp8iqkHL0DoNTudQSms3GQTcsa/H5AJSJ4JluJazORCggQ3ggVWgCKdJAOtpLVU9lVQwrSuAWlSB4FSVVjBUTOQjeYcp/EFvOtJJJZZAkgfI4vca4RPXs4mNujSV+d57781Viw+07tpgj8/cZ06EqXNwPT8E8IntgzU9zlPpzSu53W8eg3/5mm+RQHQS1oy56KSK8Zk1fX/LLbdMJQz6+z4IDSG5hp9d9/rrr2fAsxchAbY5gxQlBtyMhiALlZqfkCNf2JZIwKoCR09+tf12Hzt0KQhXTGA2/pYDfC4undjHj3DrfsSDzBQPfqdnWeBXMbEOn8OU+zohqG5laKQBNAzRonIUIOkuVJ+qilonro0nLdp67yVbALUsSAHgBVQV0014Rn3AAQfkw1edhQDrgCSaoFfN060ILFIwH1KSLMWhhZeMkkfiWh8wdQfaUBUkSIN+zirc59oHHnggA1mS7bzzzunQQw9Nhx9+eLbJ2ZBOQ3Kr5giGbyJ5JTwwWRuRAjjicZ/7DzvssDyX30XwlRgBoLUlkEQ2T1G8Z6vKhjzMxw5z6lDESrKojA7lbBGBXvwcFFv3iCOOSPvtt18mQElJR1jhx0FIYFBXpmjBRXnEGRE7dAO2Sob7FBjnEGwrH4LG3HT2ZM887EW8yML17lcgvVrfOYt13Ff2Z1kUy3gK4wEBzFtL7OCgWBDMhSh8bxB6WFcXO2gZ2vaEIYwDrGilOQBxtGr36kRAgjk5UEJwkNeycKDg7LvvvpkkOF0QOVrwVIPzzjsvVzfXSV7kAtD9CF2QBdLww5oyMVofGdBPYgiqsx3D1qt4vblUJtXX4SCg7bnnnvlpkyTTJfCjeVRsNk6cODE99NBDOUFtG4DdvtY15vI4UBehq/CDoX322SeTVqxLN4mvtZYI4sYWw5plUfEA27ZI8iM+erFTnHRWnpbF7wV0mdZEKioholB13U/fCy64IOOlXUJ1KvRAWs61xL/45MIaRpAKkuTr2LZFdyouMFuVfGKEMPnHPOxjl+6EbfwfTwQRsM7SOYdtMTy3Ezorlrqy0MtaCEGMQid20sV3rhETsYDn8jZmEDL0TkOCBLNyVIC9W+FAQOQo1VgiqMRVVcn5BMd6MiPwDlut7X7EFafyPgNsVaKKfHoR+kgmQKRf1dDVWM81qpz1fRbJAgQIF5lp5/mQHQ6QJRh7+BE42ADUfiKMPFQ5FRR56TYQAZ0QFH/oBJCUx7sAiTTMY/gb0HQa5hEnetIldCuKWOhwHFLzt+TgX4CWdGzSIUlIOltfwkguervfq/WAXAeiHe8FH1WCkCSbA9ezzjornXHGGf81zjzzzPz5ueeemwnX2QNfSXRnMghakvNNdIAhYix2YmTLAFtsi2Rmg4RlGyLhF35AYDo361T5tCjuN29sNeDCes6EingVH3PblltX7OAbRsp6D0KGRhokAMtYgn2r9oadiGroXq8cw+HFuYsCiHFyDKyc7z6DIwVWckgSOnI68jCn95H0ql7VkAyI0LXFwJtflbGFWHfddXMSx5CkKrzEoZvACqjE1r6rRJKdTea1BnABJsJ0D+KQ/Oxxr2FNoGarbZd2mG7uVd39TSQq0rFN82jX9b5jp+5LRbZWHFKal20Sr9UenF6qqadgfMqfEoY+dORX2xu2uE43we7Ynob+QRyIR3K4dxBCf2tLalVY96Qz0HVJXrrphBwO2zrBik5rr732yp2Yv+lDxyAyc8a8fCWJYQIB01+Sh9/EEh742jzIXxFATr53XZ3wD38GifMvvFjX+kVddBi+cw3iLZLXoGWopEGKSoeRvYj7EETMYd4AXlkQQxxAlcV9RlRqEuRjSCT7aiACrqphWyTBy4EXJAzvXMB+/dhjj506jj766HTUUUfl8wOtvMRVpYHZY2CPhM1tffpIOB2IV0BEGHXP+AlgIg066Wgkv4qEbFUra0oIBGIdNgIaECMtWxtnHs5eEEgQaRUxE8lNJ6Dmz6K4T5KwL5IHkBFNGcjmAXbVGJlHXPoV2DCnZPZjO/YbtkfIG0Y8taI7/ZCEsxbx8mveIPayvmxDFHDAf/yEcHR8MOG7ODMh1vAd2/kDUYmr4tBOrI9w6erVmoqB2NLDQPw+C+KLLdKgyLcsQyUNwRcQyUQYx1m9CJBLBEDkKAHA7lWdS1SvugSrIhwBd3DrMPGyyy5L559/fuXwWwT7U/YUE8qcceLt3ETLHQNIdRrA6GfNhxxySK769qvA4xDOEx+Ak2Ts1PH4jv9a2VoUiQegxH0xBx2911HQ2zqXXnppuuiii/LZztlnnz21fb/wwgvzUxrXtgO1ZBIHpFYGqBhJJjHzNxy0Iz12sqFMQL0Kf4mDn5CfeOKJ6dRTT02nnHJKOumkk9IJJ5yQCdy2TjJKQhVcwQiybCW+170gea9wg+D5DTZgJ4ZDaWRsXv7U0TkQ1Ql2siWGUQSAmBUFawdx+DuKnM/EWieK7Nr5uh8ZGmkwVuIWf3/AOE5rVbnqBNlowSSqpAIsP6sFsrIAM8CUSaEorilXEPNq9VQPgfZkpWqoFBGkoi2xLp3YzPYYKoDgq6Q6DI86Y6si6VR27TLwAmEkOvDyneRkT1nnorjO+q5xnzliSAgHfX7IZY/v6ZL1fM4OBA+USMz2qpNDNOuEblUApQOfEt+br5X+Pmefa1xbZ2enYj5xkHA6MHbZItnGOauwXfPvUZxFsMHWwRMmB7eKhziUhS8lu/g7Q4BL75FA8UdrMZCIR+C2RvxsOH/QzVmjnfADrOvS4B1WEIb5kIa1vacPnCEM3VXgYBgyVNJgLBbHfkCJlWM/1q6KFUWgJJP9qJbPe2AAhFZbkHYJ1krcEwDn+Krhu37mNwRfkjp0Qyi6Ak9yonsxfyQPXwGIz+sqoAR1XVwTOgKq6uaXo7ZBQU5ITCvrYFgC6YB0P34cBqRsrZOwpVWS+yyIhw30a6W/zw02GsMSOiEIPkfcOg326g4VNMXCb0oQiK4v9CKhn88lrU6DfeZSKMTQd7q04tANqPz8LQ9cg5wUwSpiKgp9xSG2KHJJHskFeWSu6DwUI+cnCL8qHoOSoW5PONRejrHaa0DlaJWcIzsVYFOJtda6FWJeQZd8gxLtMZb2dOH4449Pp512WuU45phj8kk/EEiYXoV/kF9s3wAo/AJcgGh+YGxV+Yqi6sU+2n3mNVQ23ZFtlz217ubggw/ONjpria1S/Hsg3Yb7+gFeMTn9rSIixLpigfAQXDfY6Ef4SPV2UI00YYqvbDPidyVlAqN/HKzCInL1u5njjjuuEisxTj755OzfOKhG3Obnk05E/sgjhcaWz730iK2JV4TBHrgcpgyNNADFiFNxBgORU2sHfwyVDHUSzI5V/abCKTficZDn6QRAtquG3QgQqQiqv62DA7Oq4WkBuyS2at6rSBLVTbKzlX90Z8iCHiqGTgqw+K1dh6aLQ8oEGUVlAy5dDOIRk0gS5MGXKpS1rMmfEjeqYFTZbsU67EBA7LI2HcxdlYiw4FwA6SGYXtftVAKfdNPSS3xx5W8JaIsS/z4p9PVKT+dPSIPo1DwZ89i5CivFoaPhDz7mD09eYp52IjYIQx6JKdzICY/W/c3XcKsjiSI0LBlqp0EA18m/02tMCBj2fn4VyWABAiQJBKRGVByO1VY70cf+2JXz7EcFivP6qfRlQQACiox0HIJUNbSI9NApAF5IkJwkCFuKg10G4Ak0MkQGiFDQPXnROQGy+SW0SqbT8nsDIOMvc1gj1uIre2rXaJv5xVySgY5ICfEESbMN6bHTeuFH6wAxnRCNdawRSdOtIK4gd3GPJNGyWyv0j/Mq+ktSvhopYTcf+P2L7tF5h06ArrozT5boR09DlQ8yESNnJPAdv6VoNcRCIXItv5jTGs5Fws91AhOIPX60BzN+A+Ocim91Sb7rt/vtRIZOGgCJHT3q4zSVlLP8+m/ixIn5UZ8ASCJVBqCQhc9sR+zB/Yd7/JYBmFRHrG4f3k+VH4YgDcmgI2AHe8pDgLXA2lMHZOx3LXJAhBJMoqt48dsMPrOlcyaBaM2jGkfLbz7tNADxG1D5JaODvyBCw998GLoEWUsS89gCImi+tlcuJjbbuqn+yNTBnDMDxUKSsBXQ2WJ+6/MVnSWi7RPyG3aXURZJxt+2ZgYyQJoqeTz5QLj8BKdi51Xx0DmIHdKvEzGVB2KCRPgWYciF8HWdiB0dkRsC4k/nIvRzv20JXRBSsZANQ0bkv9zFYQDEaAKcQKvqaPVUNkDSWvvbybJOxL+k1JUIoGTy6NLjM48uBYwjOYjDgd590Z67RoBa7e84XBejckhOwQDubkVSAbqTcglIJ/qw0fyIL4aEB0Q2eewpgVRYtunEnCvoAFQVQAZexAAUiME6AMx37NXum9cTHf9QjQ/5GKn6+Ty7+J4+ccKOkCWA+yWn9zo4iUAnT1XM4zv2ICAVzBMGxKPC6Wa0776XCP77lVVnIHyB8PjYfeItlogzPlPJEZ7/Nqbv2ct+W6b45W67hAxBbmwzJ9/zrc5BbOlJ/7qE8j1f0U38vHqPFFR5+iI2xMo/5vYvtukY2K4Ta0t28/inAbAj9kiAnxEREqE/XehtGxnifv7UkcE5suUv+vEVwtM18Tv9+EIB0DEhE/mjCOlK+pERIQ1GRMvNKCDgAMzNgYAkIYCV0wRc6w5crtP6+eGNH03Zj2Pq2Lf5fqyQRlQjnYPPECB7YlhPdXEyD5RALuD2uwJOZ74JMuQz4PHKRlWZv5CFeQDP8LfkR6SS28+f/T7B4VnMQzfDHHwlofgYWRjIx3vrmEflQlCxbbIl5HP3dkoa3vsccbFJwrhfciAI4Fc0kBbdJGa01pJopEnD2r6na5wB8Zf7+IQ/FDNxhSuds/9EJV1dUyfmjSHRdQg6LZ24+21FFQNz15EGf4oTfCkEcZ2OTszF2nX/eNIIQRochFkZ4T2jgS9aeknhPaC4jiMkVRw0qUAcHQEggC4AHC7QiEnyIBsdTpVIEtWbOAADLmTUrSANpCc4AipowBsJUhw+Y1uAUAWXGIBn7y+YQRgx+AlAvbrP9gKZ6hqsa16fA53tjcM2v3pkdySB6kQ3r8QcfG0OySEZ+M89/B17b0nHl+ZGrKopIFoX8YkDYrZmgLUo3keXaVgfmOlsDuvzie+CuF3jPnFGVIg89G4n/M6/CEls2cQec5uHn8o6FsV37GAnH7sftvgRedFbp+gzsUPyfB5E34mY3/3Iki/E1RmTrYWCw+d0F3O6O2cJsQYb6CZ+OlD30sF1fMbfxNx8Aef84TtxFS852I+M+P/3RJIBLZLgIKD1quIDpO85VtvGIYiDwd4DfgSnGHzzCWix00AadZ2GrYHqH52Gobp2KwAQnYag17kT+AQdyHQBugwVUBABNQJetM18QYqCryprSwGGSFw28lMcnPosyCf0MYd74vcFOh0JS1wPvO51Ai+JfecMxX0SBrnRU4zoodNgrzW16GJWTpxY2yv9AV2VFHPdhs8UDlsy85iDfr6nA5B302nQlX4SMjqNiG0nnQY9EQ9sSjZz8BO9VGnic9fwt0LjyaC41c1bFGsgTP8tF+RAJ7hTNPiT/ToNc5Y7jRDXRJcmdsjFGRYcRKcmj8xnOyUvxBcJD6LTGJX/WVIEB2i0al4lvs98B3wCxSEA45Vzy6AM4SCA0d4JOJGUAGmeKol9tfs41OgUnEWxNhu0iv6uE8AyAIJeKiiy8Hd0BVXCJ+aWyIb1+Iu4z/10NxdfxTpFMQdb3Y9gJZf3JMjMvToLf5sfuK1rboBE2qGHjs7f1kQ2QVKtRGytJz7uB2if8UXobo74ng7W9F2QaTuhj4Ec2QhXEVvzV/mlLO6nlzmikLlH0SJB1vSKuVvhspWYExnF3HAAr+Fb6/rc3ApnWeIaulibbgafhX2BGeSMrPmQP+WEOPcjo0IajTTSyD9XuqPIRhpp5P9eGtJopJFGupKGNBpppJEuJKX/AKJ8i9q3f50mAAAAAElFTkSuQmCC;" vertex="1" parent="1">
          <mxGeometry x="154.47" y="610.5" width="131.05" height="19" as="geometry" />
        </mxCell>
        <mxCell id="wlm9aBcyxREOP3yCC78D-23" value="" style="shape=image;verticalLabelPosition=bottom;labelBackgroundColor=default;verticalAlign=top;aspect=fixed;imageAspect=0;image=data:image/png,iVBORw0KGgoAAAANSUhEUgAAAKYAAABuCAYAAACtM2iuAAAAAXNSR0IArs4c6QAAAARnQU1BAACxjwv8YQUAAAAJcEhZcwAAHYcAAB2HAY/l8WUAAApxSURBVHhe7ZxXixRbF4aXOeecc8asmBFzQEFERb3xB3jnvXq88QfojV4KYkJQMEfMOeecc85Zv+8867gPfZoePcq5WDP9PlDMOF29q8Z66t1r7Wot9r8/MSGCUfz7VyFCITFFSCSmCInEFCGRmCIkElOERGKKkEhMERKJKUIiMUVIJKYIicQUIZGYIiQSU4REYoqQSEwREokpQiIxRUgkpgiJxBQhkZgiJBJThERiipBITBESiSlCIjFFSML/FzHfvn2zr1+/2ufPn/3736FkyZJWqlQpK178r/uwWLFi/lXEJbyYjx8/tvPnz9vOnTvtyZMnvyVnt27drF+/fta8eXMrUaKExCwEhBfzxo0btnv3blu0aJHdunXLvnz58stijRkzxiZPnmw9evTw9JSY8QlfYyLiq1ev7M6dOy7mo0ePfFoHpuZ/u0Hwe1BkED4xr1y5Yps2bbL58+fbw4cPfToeN26cVa9e3cqWLft9rx/TrFkza9OmjdWpU0dTeSGhUIn5/PlzrxdnzJhhDRo0sPLly3/f68dUqFDBKlasaGXKlHEpJWZ8CpWYTOl9+/a1OXPmWJMmTVy2X4XS4PXr1/bs2TMrXbq0S0vH/u7dO3v//r03V6RqkjmlMn9NlBDsw74fP370sYC6lf24UcqVK+fvT+VDLhiL47x588bH+vDhw99NHe/lvNKxOTfIt5sp78REBLr8vXv3Ws2aNX2cKlWqeP16//59lwQpKRlatWpldevW9fchJYmdat2nT5/a27dvXTLOo3bt2ta4cWNr2LChVa5cuUChMgXnd0t1M6KzL2JTpnD8+vXr+/eZdXK+kHdikpSrV6+2efPmee3Zrl07H+fIkSN2+/ZtFxMZhg8fbqNGjbLOnTvbp0+f7MKFC3b8+HHf7+rVq750hZiQxESmnj17evffsmVLT75sMUlrZDx48KAdO3bMLl++7LVzppg1atTwm4Jx+vfvb40aNfrX9XRRocQff/L9+5AgEiIcOnTILx4XadCgQVa1alW/8L8KMh0+fNhWrVrl6fnixQtPQY6RpmgSrUOHDta6dWuXjptjy5Yttn37djt58qRPuxyfNCV1mX65aW7evOmSAamJYCnpeA8pSVrv2LHD1q1b57JzIzAGY3FD8DulZE5JivSUCSmF84FCJSYXlgtIKtHI8ESIC5tr44KSdEASJUGQ79SpU7Zt2zbfhzqP/VJKMR3TvZPMfI/IiLR+/Xo7d+6cS8jxBw4caAMGDLAuXbr4OSEeiXvt2jV/DyKRxmndlHqUUiFJyc2BvLx/6NCh/gCgY8eOXgqwP2KyhvvgwQNv9Dg/9ofsFC6KFCoxmQa54CQMqcKFRoZc271793wfUoYtpWummHxP8iHHtGnTbPTo0TZ48GCfPklMBEDGlStX2tmzZ61WrVo2adIkGz9+vPXp08eXoJi+SVbqQY5BaiIUYyMvUzBychPs27fPNm7c6OUAP+OYU6dOtV69evlNkcZCUN7P78DvDsjJ6yAxA5ApJg0HCUeNRr1HnXbgwIGcG/KROkyPyFepUiUfL4nJtAwIOGTIEBs2bJinFcnE/jRAiM9x165d6zdE7969bezYsS5RtWrVXDpk5Cvj00RxrrwPEamDkZl9mOK3bt3q58Y5jBw50mvY9u3b+3uzx0JcyozTp097w0QJ07RpU69B86ERKlS/IVM3tRwXn1qNFCtoo34jubi46UlRJqQOF5kkQjQSD7GoKZGS17kpSECmU37GlM3rlBS8Rg3Ixg3DMRAasRGMtObmYT9KC/a7fv26N00keGq6mPZ5P6/zuYB086W6E5Cam5GvwXvV/4xCJSYpwsUnZeiWu3btWuDWqVMnFy41FNmQOiRTSkhqxzRFcvFJvCRMEhvJz5w54ym6f//+f2z8jNdIQ96PjDRNSJbGQkpeT40QNw+pnz0WG+/leGmsdC5pvbOoU6iWi0gfhJw+fbrVq1fPp9eCQDQaJMQk7ZKcyLF48WKbNWuWT7PUixMmTLDu3bu7+EAyv3z50hue5cuXe13IFEvzgcxInavO430kJalOGvOUaubMmX6DINuCBQs8RUlJ0pDz4zxzwWXhHJCRYzLt80GUESNG5LzRihqFLjGZbrnQ1IY0CQVtpGqLFi28Fsx1IRGL8dKWDclEJ52e7iA36UrHzvINUmdvyMYUTTNDc8Q5IDNjIS0bx0Vyxso1Rto4Br8njRgrBDRaJHuuG6IokncL7CkxZ8+e7XVlSkym/pReKflY1iExWcMkUVkm4oZA5J8JQh3JTcH7EDMlJvUvN9fEiRNdZJL1ZzAWjRkPBFjCKihlixISswAxWZriuIi5Zs0aX0piX7ppZMolR+ZfJeIy5ZPWTMcsESHmiRMnvOGaO3eutW3b9ocpmDleSnaOmw+pWfTXHX4DLjxCpS4bwVLzQvoxFTO1Z27Iikh79uyxpUuX2pIlS7whoi5OY6WygoaIbp+mijo5eyw2XuMp08KFC23ZsmW+IM85BM+R/wyJmYMkJks2TKEIxVINXXR6skPtiSRsKWF5bfPmzbZixQpf+2R5iC4ckakbSUpqTpoaPpWfFuJ5P8KnWpQnUTxDZ90TyRmL5TG6c4mZxyAm0yYy0UCxsXRDR00i3r179+9HmWws/ZCAyManltiPxX1KDepD0pR6kgaG8gEZN2zYYEePHvX9eH/mWKQs/8YJMbkZ2Icbge48H6ZxyLsPcSAFT354Zs2Fpoume6bbzn6iQj2HoAjDNI4gly5d8imVepfkTE+HSMqUkkz/dNNTpkzx1GUMxmZ5iOMzFov2CJ7EJEX5MzUon35iPMYiYfk3Szze5JFkvtSYEvMnYnIMaj4SC4GQknPiSQzP0fnoGo0NUy3CISIfyKBJ4hl85qfmqSeTpCQuclMi8Gyfbp2kZSweQ3IMxkqPQdPSkxIzCCQJqXLx4kW/qEyrfKqHJZffERO56PRpLFgrZPmH7phpO1tM/sxUzGvImRb0qSdJN8Yh1ZCI/VgpQCQWwVk94D1pTL5Sa3LeLPqzP5IxFmJy81EO8FiSG4JlIdZDEZwxkTRfpITwy0Xp35Xv2rXLE5O1PJZuaEhIo1+FpCKVeKqDJDxJYqP2Q4hsUoOTnncjEEKSdEhFw4KwyIuYSE76FvSEiP0Zi5qVxGU8ygGSnOOkp1XcgHzYmDGpUXONVZQJLyYXkSkPQelYaSh4HEla5hLpZ7AMQ8IhA6mVlnG4+D+68AhFrZmmYJKXsfjrI8lJQ84tJTk/K4jUfSMnciNlesKEgMiZHn8iPeeVT1JCeDFFfqLlIhESiSlCIjFFSCSmCInEFCGRmCIkElOERGKKkEhMERKJKUIiMUVIJKYIicQUIZGYIiQSU4REYoqQSEwREokpQiIxRUgkpgiJxBQhkZgiJBJThERiipBITBESiSlCIjFFSCSmCInEFCGRmCIkElOERGKKkEhMERKJKUIiMUVIJKYIicQUIZGYIiQSU4REYoqQSEwREokpQiIxRUgkpgiJxBQhkZgiJBJThERiipBITBESiSlCIjFFSCSmCInEFCGRmCIkElMExOz/96PQ08c7rbAAAAAASUVORK5CYII=;" vertex="1" parent="1">
          <mxGeometry x="182.28" y="420" width="75.45" height="50" as="geometry" />
        </mxCell>
        <mxCell id="wlm9aBcyxREOP3yCC78D-24" value="&lt;font style=&quot;font-size: 14px;&quot;&gt;pTC&lt;/font&gt;" style="text;html=1;strokeColor=none;fillColor=none;align=center;verticalAlign=middle;whiteSpace=wrap;rounded=0;" vertex="1" parent="1">
          <mxGeometry x="190" y="335" width="60" height="30" as="geometry" />
        </mxCell>
        <mxCell id="wlm9aBcyxREOP3yCC78D-25" value="" style="shape=image;verticalLabelPosition=bottom;labelBackgroundColor=default;verticalAlign=top;aspect=fixed;imageAspect=0;image=data:image/png,iVBORw0KGgoAAAANSUhEUgAAAXwAAAA2CAYAAADEUyJ0AAAAAXNSR0IArs4c6QAAAARnQU1BAACxjwv8YQUAAAAJcEhZcwAAHYcAAB2HAY/l8WUAACNwSURBVHhe7d1XsCxV9QbwBgygohIUExjABBJEzKJyFUFQERUkC6JQApaIFGUo9c+LD75QxYNaVIEJA0EUE1CKopIkKtGIiglQVEBFRfHPbxffrU1Xzwn3nJlzrrNXVdfMnenee4VvfWvt3T3nrvHfe6Rr0qRJkyb/87Lmva9NmjRp0uR/XBrhN2nSpMmUSCP8Jk2aNJkSaYTfpEmTJlMijfCbNGnSZEqkEX6TJk2aTIk0wm/SpEmTKZFG+E2aNGkyJdIIv0mTJk2mRJb0l7b/+c9/urvuuqv75z//WV7//e9/d3fffXf5bs011+zWWmut7n73u1/3wAc+sHvAAx5Q3i9HYQcb/v73vxc7YsOQrLHGGuVgG5vYdv/737/82+fTLvx35513dn/9619LvNdZZ53uIQ95SPlurv7hf2Pcdttt3VzgbdzgrY6Jz5ZLTP72t7+VA9bWXnvt4heviy1895e//KX717/+Vex/0IMeVOZZrrk3bpHTsCS/+SH+WF1lSQmfM//0pz91v//977tbb721u+OOOwrQqCThHvzgB3cPf/jDu8c85jHdIx7xiG7ddde998rlJez43e9+1/3sZz8r9iCtIQmxSB62bbDBBittA6RG+F3x3y9/+cvu2muv7R760Id2T3rSk7rNN998XuTL/z//+c+7yy+/vDQRM4kxET28wZdYPPrRjy6xQf7mXQ7y4x//uBwK4eMf//juiU98YsHOYgti+/73v9/dcsstxSebbbZZt/HGG5dYTKPccMMN5bjpppu6xz72sSv9sbrKxAlfh6Ji3njjjd2PfvSjcsShOrJ//OMfhfB1WRJwww037DbZZJPu6U9/eveMZzyjEACyXE4dxx/+8Ifu4osv7r785S931113XenEhiTkgkgk0EYbbVTs2XbbbQupSeRp7/Th4dxzz+0+8YlPFFLbddddu7333rvEe67ky/9f+9rXuuOOO24lnkYJXxtb1/awhz2skL2YPOtZz+qe9rSnlX/7fqlj8oUvfKE77bTTut/+9rfdjjvu2L3iFa/onve859377eKJHPzwhz/c/eAHPyh5tttuu3Xbb799ycFpFDg666yzussuu6z44dWvfnV5Jatjnq71f/fIve/HLjqvP/7xj93111/fnXfeeeW45JJLSpIDWrr7FIU///nP3a9//etyKAi33357GUcx0BHPp+sbp9BLR8oeiWLFQkfCHstkNjn4wIqAHySvwpftC12lpTrSn1YR60svvbQ744wzSnx1VM95znPmVQjTpZ588skFNwqAOBhDLOpDTODOOTfffHP3m9/8pugAjzCm4VgOqy8Nxbe+9a3SHCHfJz/5yaUgLrbIu89//vPdFVdcUXD51Kc+tdt000279ddf/94zpktg8Xvf+17hqUc+8pGl8eR7sjoS/kTWq5LNYcsGuauYp556aunkfvrTn5bvJLbKucsuu5Su7iUveUlxLgJEjJzumi9+8YuFVBUDCeva5SRISmf0ohe9qNjyqle9auXxyle+snRmvpNE5Jprrum++c1vlmRWCBUDdjVZuEhIqylL8Oc+97kFV3U8EpOXv/zlpVu2RYL4r7zyyrJa+/a3v122hpZDPKw+rADhxspQEWrSZL4ykQ4fKdtLRW5nn312Ie1f/OIXZb/0xS9+cXfggQcWInzhC19YltJbb711OZ75zGd22223XSF9XbTk04XpypBqtkCWep9VJ6Tz+uEPf1g6SltRhx9+eLdixYpizzbbbHOfwxYO+2wX8IPixT+us53gJuVy2rKapPCfwnfBBRcUfGy11VaFrOfT4evYr7rqqu4b3/hGWWnB0c4771wKMN/XsRCHxITvbe3YorMCsxpDrM9+9rPLfvZSCrw/5SlP6Z7//OeXnIB9ny222ALTkFnlxHfmndYO/+qrry6H+0r8ACurc4c/EcK3xJZAX/nKV0oni+R0KvYidVgS2jLVkgmw3Khdb731ynIaKTqADzEiBMtOBPC4xz2uJGS2T4gklfCKAlFsdGg+R6p5rVcHAreQ4NWEryDR6YADDijLYds07IlNDjZmq8CqR3JJNOfaN3Zu/0kAujrYFTtiy3ztqcfq+8Xh8/iP1GPV1/Kz8/O59/nM9+mMo8+oeev5xNcqcDEI38oJUbs/YltIsgZf9SEmfG8+8+RBAk2GZkMzMnQDl330jh2xqbYn0vchqa8zdnyYcRzxoQYgN5XpiuxThKIDu3M+yRi1XvX3Q/4cInyrbyuMjFOPF1tmarrquOf6egxHzgtWaqGzA4/UNtRj1Z9Hl1yXeXN+3tdzkyF/zEb4sc08tT71HL5zTmRonknJ2AmfsRJHEp922mnFeYhup512KmRvKQ3EIW4gdkgwpAfkltpeARqxpvt61KMeVZa3vuNEn/3kJz8pya5LIwCMhD1B4zuvCo6nELK3az4gmQm0M0m/w2fLXnvtVbYS2BCbYhc7fU5n1/KJV/YguPgjEjA5BxEBH1tsh1n1/OpXvyo2+h7AzGPsHJEA07aRp6Iktev5xFgOY3viiI8lmOuRTZ1E4uBaN6jZ7Xt73u5HWMVlJWaexNQ4bPDIn/PM6akT5xrLfL4XF99ddNFFCyZ8W4Z0U0QlqoQdikdiAkfs4xt6wRBidaNOPIyVBIc1uLbd6FzxcPBH7NGYELq7lrDBHK53Lh+6zjx84zP3g7zyIfzSjV/Mw3eu91keV9UIwTT8eR9i9Fn0cq37E1lN0smRuMa3NeHzz5ZbblkaMbbAh5iJD5zAuhiTFMR+jOhKl2C3rxPs8nNyMVgzTsYSzzwYYQzn8l/ygE5sowub+NK8uQ/IZ+YKxr2nh9iJk/HNFZzWNsxE+IQe9Klto4/4JZfymGtwMOSnScnY9w04Xsfkpgdn+LenbWx3eNVhzSYCYT+fkySDG3Ic6rE7XTRikMi65U9+8pPliQY3tN74xjeWTtq8bqh65XyOFzRd30tf+tKy7QLUPp+kCDy9vTrYGUDUwmfADKxsB3z7zAgB4HSh7GXHC17wglJE2YOkamAZx/lACMRI1TiSTowkiGtcawVmi814W2yxRemMjSV5JdHXv/71ck/Fde94xzvK2G70IQvj0Md23T777FN8bVzxQcT2xs8///wSDwSDaJ1j20WyhkQmLfyORDUYOlp+oh/MsB/JErb6DPF997vfLasR21DIgzhXVywOfAjnVqmJBR8qkKeffnr3pS99qfg/TxTxDawi5Sc84QndDjvs0O2xxx5lns985jOFVN7whjeUzzQ7RDMF82622u5xL8yqxhMmni4xvvGsDOgC8+6RGX+mxy3picxgBdaSQ+IIqxoacxmPreyeCbtwC3PuwQW74i32irp7WzBMT3kRoYObp7ZJxca5cpc+7EP2eAR+XvOa15QVmaInfgqq+3+KIc5QzPnC+LjBNh4b4Nxqhj59G0YJ2+imoHznO98p9plHIfGdOcRI02Irjo/wlVyYNNdExt7hCyqQAregSySGA4mOVmcgEWpiiuTzfMeJAsahXjlU1TUOJ0oYwQUoQRMMiYjUgM75yAWpIi1AESw6+JxurhvSZSbRvQBTOnwELCnpVQeW/pJItTe/RHVPQxIBOVAAMyCmI+Q/9l544YXdKaecUkDOnxLOechZ0rJPV8bHusHYShdibiRjTk/AIAN+oguSUzSNBfASQsdCL10s/3gGmU66MHMpvLp55/G94mts3/GfuW25SUzjO892nidnFC32Iwg20J8eOqN0RV7ps9AtHTrDCKJThGZKNOMj7WBGMZOwYolQXCseMGNsJGsVgfz5wLns4S+kaBwxQT78Kxb0gQFYRVbOgRnxN2d+OyBe8Ehn9xn4Iw8rIHNFGFkRcyA2xExHeofg4JlefMk+2BA7+QNDYgArITl6Kdrmkz90oWOInp3JIb6CTWM6r7aRsFMsYVcxQop8p3Dyk/PZGNKEXXMYwxz0IhoIReurX/1q8Qsdnc9evqe7zzWFVnPs5Svnu1/IFzBhTHM6YJJ+cKnjt4JIHrAxYg4Hf/Q7fH7W5Ni5gAd8wqd8nbykl8/FQpz52zxsnC/PLIaMvcPnVEQDNALlZhMiCNDmKkDEgQkoBwo6sCGZWgTX50SiJnGymgBUhABEkk6QjYmgnbsQQYgSHPkJNgDkc/9OsutwEKYkZxdik9j8kmsIwpWgOmrdkXF0OQiMzpJHQvCHORUDyYx0HLoW5/CJOXXWEk+imsu8yFwyACBCAW5zejUn/XRexgsxRCQokiLO09kS++IIyav4SzpEYqXnPPojLeBHohKOPxCEROKrSQs/8p0EZRfMwQMdQ/Z0020qXrBDbHuwG4kR58AWm5GFmBvDPStE0Bfj8ov5YFE8XCO+Vlr8FRKdTZCKBkThRlCuh2uiMNAH9jVG8s/YVgUwUscWgfMBEhZDmGMnzBDxQqrwhvSMlQcOshKCXYUI8bIPvtyrU7AUOHiSCwhXsTdXGjOEKNf7BRrB841XmDUeW42DiH0G57ptNho3+eJc+sEWTPKH/IM5TQh+MCcbZyJjOehQLPhAE0ZvKyaYzm83fOYc/pFvClu4z1z9XJqETGRLh6GSiEggoBbQmbqtvnAOIAheQIfUBV6wa5FAAup8AbR9hPiSkJLCExwOAUM0vkd+EmAhlZe9Ei5jx8aARCIhFkBQsPjF8lp3r3sAWNc4lwCjZDGeayWnZb7tEr5gI/8CNhKyJWBeWwD8JOG98pE5ETjwSWJ+8Uiic1IMER5S8D07zI+4+NlnkrQWtkhU+jv4kThPnPkc4JOA/OMcP+jxZAx/i5d5FCKFDQHE/oVIfI4gFDw+8L4W39PJgSj4EUmxl25IwqsiDFNiJsHZpLCLhS0EsQuxaiiMwV+JB0whOvjvk7e4xoewYNlPT52mbZOsGuYi5oYf5Lz77rsXX8OJ+ZEzXNBbjGFBjBSGfmz5w3lIH+bo5Wkl5/OZeNHNKkdx0yCIG38lz+AMdq1ijW21l0dg06wgRc2glRJfwZrvHMZH0LUoIuZXOOWA/Ka7HGCHWNGNzxG6fyu08at/863GRqzxENzhEq+2INk+EzcFU+zTZLFb/GHBXJpaeJE/8CLm/A5f/GTF6vq6sZuUjJ3wJbOgCghnA7Egrkp1c40AuT4ORTjmGBIAEGg3iNNRCBbQ0kkA7MPqVhCdsRYqxpcknkiS2HXx8B0BKEnu37oTRKGrQ7p9MgAQHRmAKki2wuxVSgb28AmfOrw3NmLX8bvO/qQi4nMHfXSjEkXyIQZxybz8S/gnxGdu8ePnPvGIg4SLn/mc0CUxDokaA8m/7GUvK+ebN8WNjv4toRVBWwiLIRKLDVm1DJEtW3XliMdqBRnSFVna201i8gM7fM8XusbXv/715RUB5TxFGEbFEwHb0nCN+Z2XwhDhJyRpD3vPPfdc2WH63Jh9n88kzhdfeiGWWi+rXL5mM38gRjYjRjrX85gfFjQDcILM0rmSrHzEiY38J4/4MsJmhZEvFbsQIp3MlTn42XtFWfGQk5qwrDz6wleKo99R0M8YsO1cRVls2MMP8gQudf/iESKXd3SgN18gfHwQnM9G+M7BP/DqvQJlhaPLT9MWrmIXneFah4+LkhuTlrHPyhk6BQEJgB0CPB9xvoMjXQ94xpbQIdKIeQRUpRUECYYQBdjhO6ATJMGh31D3typCR3OYN3utOfxbl+E78wOlBJF0OqF00hKSsEtCAaRzkSmiBhpg4of4A1kCG/KR2EAmkV3LNjoBvx8fueEXcpa4vjNODr6Nj0kdw77Qi58lnvGN56CPMdhDD8lEdELpysybucSHXfHRYiQE/9EbgVghfepTnyp/sqE+3OT/9Kc/3X32s58t9zUs8SUyPRAwMgrWst1lhQhD/Jcbn/SFHwcMSHSEk20EftANZquxFuPDBFJK4XcYV5zFZK75wvdigSyzMqCbQ6x0+2xC3nCmS2UToqvFnHLDWOxwXT+H5JXP6alZMgbc8Ts/WLVoPMzLPrhEduyFpeQbG43lHDqHhPk7uRBB6nIHRuDNeGyGpxAsHCks7r3AO/2HcO4IBgndHbPxQHiILilIOnmrCgUOsctr59AHTjRqbihblfC975ZCxk74gl8TMmfNFbx9yTi5ftQ4AsjRgKFbEpQQSOYHQucAsQADVghN0AO6oUMXIqip7rUY27i6IoDTseVAtD6z1PYjIF2KomNJaDnrxo+x0yWxF1nqnELoKV617d4DEFsRjMO/rVpcH8JHJvSSDDp7RGtsNik6AGvrxX6m7sz1SWD+qeMY4Vvz8TUSiH8J3/CjDpCv6OTGWjrF2gbxkbCKB+JLvBYi9KW/ZGSXVZdf0NYHkredoOAiP/Yomh4ZlpxIiC7G0T1aPSkI/CFOOn5jW7LXR7p6RA9XrhdbPu0Lv7AbFuCy9st8JRhAemzpjwU7cICozSs2bKo7c8LmFGGkSq9afA9TcOk8sXbIJfYqtPyZQq8g2FKCrb6v3FeyGnUuffkZLr32cUcP+tAf3kLWxLUwxD6xg3UrSrqyU/EJzulhS8tKwlzJY/oP4bwW85g3evA5jNkS8tSVLSzvkb9mw5iKk0KrkVCcFgPfqyL3Xd+OQTgGsRBAEEDHqooxBMdrutC+8/xb4AEiFbgvznGtQ4DrIAOa5beADYlEQeq6VV1LLcCgM0IYiENSRMxBb68SQgIgIU/N6O51SJJVd2cMosuRjLahHCHVIZEMwJTOTpLpKJENeyWmw9yIWKGRBIqX5b1XyS8BELStKdeSUUkgBuYzLr/UAujGQZDRQYLotkaJ5HFOP6arKvzNf4oev/V9R38+5XOFRkxthSiI/M0uAnP8wW/wq3vlMzckh8aNsF8cQq79Tpqw1VwwtVAJTpJzfaEnbGSFSZ9sg9RCJ7nDLzWG+8Iu5/Kzg4i7QhcMGRvONTSjxnINjLjG+WLmWr6usUBnfsq2SV98Fpwbjx5iJdcUXPhOIXKYIzrOZGdf6KQBgxeF3Q18fKGAmJvffA9HVltW+EhfXGp7Ji1jnxlodAFIIUDQ5XDwKBIZEmASfAQo6ZAWYCOPPqkDtcAHjEOSJK0TlT4Oc+gATjzxxMHj4x//eHkGXVFgTy0ZEzADvByIJWBFbJbLlpxuYgEIwtUxAiTAs5Gf2K4wASSb+npHfJcC63v+NkaSka62LD7ykY9073nPe7r3vve95b2C41ly3Yh5FQ3LYB2nwjmT8C9bh4BszthAF9+LFR1Hie/NOWTffMV8fL1ixYruAx/4QHl8jq314TNbOh/72MfKOfvvv38h/Lrbji/ZEX/yNZtnO+ATuVrV0GXIduOzeT6EM0r4zxG9++IzfqGbVzYhRjbV0j9v1Fg5auErRS6Nne+Nw774pX/QWX7EV/LDvKTmidrvQ3qZW4PhSSoxPfroo7v3ve99Bee67xrn5lDk8ch8fB+bXW+V/va3v7075JBDyr0pqwsxVrjwgzn99VH59qEPfajc8Fdo+v6elIyd8BmPzBCIICFThJaqOlcRSEFSpXWgHM65llV9UkpARgG1lpxbi2BIAsAZOnRFdAkZ98V4Id/+UQM8fnEgWT7RgaSgxQZiHsdMRdL3/ORwXvQg9NbR28bQldpyEAfj2ybSgVgG22f0BI0bbLlXMJOYg11Dvs789XdIYMhnkRTdxRBzSmSdFRIf+uNpttbcz1AUnOP+ArJXoNlljNquvOcb/vKL6n333bfbb7/9Bg9/J+rNb35zeTV/f0VIjGmuxGohwncz+Zc4B0acZ05HbWPEZ6O+m0mcn5izC841Na997WsHfeRQaN/0pjcVX73lLW8psdEhK7q1GLePqQh75BBCt60C57aL4Ny5ColVt7iJBX3g3HZaf565iGvgwI1927Rw4Ckfv8xmL/3pqpGz7UcfDYZtpaGV3iRk7IQvMAJuL013i/BtI1gOI6G5JjgCtiS2fFIhEZHkkZw6g8UUeqr8KvbQASSCjEgWMjcQIn/+0f3xg0Ji+wF4fQdUkkYB4C9+GOUzZJqbZxLa9WwRA6sq3b0fb7l56HM3JV/3uteVRHvb297WHXXUUaUjOvjggwsBSpB0PnOJUV/Myz+xgU3Z4hglbKf/qsw3TqF/Vh/ssrevOB5zzDHd+9///u6DH/zgfQ6rBce73/3u7l3velf5NTIycA9jnAI//DsKIz6DE8ToVWzEiH2LJfyjYMIOn2nKFNXDDjtspV/6/uJDXTD88Rdf2e8OfuciMI8jbK/4zYfVMtv82hnODzrooKLDO9/5zjKHrjyNTY3z2bDne1iWi5o+vvMEnXt04qzjV7jycATuk+Pup1lVykM8uBQydsJX4WznIEgduWRG2h5/U3nn2uXreu1z22rx3pi6Uvu9wLWYYlnp0cdjjz128ADOI488sizn6LEQAVIJitAJkgaggNz4ioEE9XSIV2AbEuPwjX174/GLgmhM1yJ6oLMU1eXoOoFSEcsPsCQYQJtHgZnPKqwv5jUXsCNKY7lBTMdR4ju4mC3pJi1syVac9/TkSwQrhkMiTnzuxqSb8jq7cSc6wstNyCEfInk5qOGCEVtOMIaYF0vkPF/ZyuUrONLlzmQ77DqHr2x79J9Ym4uwRzOYbVGrZk/HvPWtby04R+721BE8/Yg5+GM+OBdXc9ltUFzoq4k1jpzTiHoc2oMaRxxxRHfooYeWuRU+DY/r5ONSyEQ6fIFXrf2SFLgEVgJYbnlGm/OGkoZjBZyDbEF4osLNF+ShU3LX23hAtRii43ao9khKBz/qyJ7sqs7NNt0sYNpqkaiSjj25L8F39vkVNUBx84kvJE6dzN7zE6LPo3A+U7jcBKYjAtfl8zVSN6alrHPMpxMypzggM2MYL92iz0cVmlFiXn40l31S4saWsdle22BsOvIFTIwi0aUSmEAgyIJNfGSPVgEbWpGwT0HwBJA/K2Bl5Xw3SMcp9KITHNChFjrCgKdUED6s286Dg4WsVPsCt7BkS0OeIHwxFXf61TiiE+zSx1Mz/l6QH3Np7JDxfHCQYsZGtsM5/MvXUTj32HMaJEK32XDue+Mr5uecc065B6RQeVLHd8bHeTBvbrsFcEMf3ysu8ylkiyljJ3ygQtAMt0eqK/cZ0EkGvw5VzYFUdRYEhyBwoGrtESeOVSAEBgn61R/SF0QdxXKRkCOwAl59IHUH25CBjs9NJDYiAt0jgCJ9BMNP9pQ9x+s9MrQc9CSAcXSX/JGOzaNteQ4YKfETvwOg6yP0cx0yBz4g9Jnx6GV88+hCQswA2ie12URcgDzPYNPD2FZ3Eo2P6JCVCT+Y13ezJd2kxapLfCSvGFnO01f8kCv9+dShOPMjAtPY5BE9xDduUTTtYSMgzREfJ9byi/91pPAII+4fsWcxV8mwJvaw64AtOvEBjMIuzNIL5mAXH+TR5DyiCQPzxRzJNcG5uWqcZ8URnLtv5rzgfC7Ycy4fwgC9HcYybmyDEfaZTx4ZV15rFBd7V2KuMnbCJ4Kv4tnWsX2g2wdEwPPjl+OPP778kSPJY7vHIVk8yvXRj360O+GEE8qeHBDoGCyX7DHrHFflZsu4RaBVfwAA8vqwBGSb1YrO4KSTTir2ShLJJ0F0I9lTzUqGrcDkB0T2AZEmoPKjVQJfuiELeD5znb9/w198pDvVcei+nA/sCq3VgmQAyP44tgaSAGyaSyL0xXxulNnHVMgQoRtqujg+MofCwgduaJmfHquS6OMU8eFD2M2f4FCAxVAs+RLp86cCgOQ/97nPlc/51taaa72OU4I9KwpY0VQgJn6WX54akUtirpEQFzopxost/KQxU1jEPX9wzhM0YsxXMOxPbsh1DaDGB9YVVlsg87m3YEWJTOHce3PIN1jnA1hGxHQRH3lk5wD+FALCL3k/SmDaSkGeagKMKaf51bjyVA4qbAodTNNDDOBGgbWyWgpZvDs1M4hkcXCQGygICMgkA+cIhiWfbj2VT5LoVjgNMHSK+bMC9s51jAqJcZeTIEX6SnbBBY5afJ8uA0EAm2TzPK8nRpCCBIldQO9vkACQu/xWBxJZF5z9ZIDTJUkeROnPFvCTZOZPfpJEElDxsC0k6fgdWQGv63Sm4uFVLIztHEkArOaZj8QGCShmbLa9IeHyVwzF1dwSnV50sfUnQZaTsEWc+NGNOMSKoPhLgVSAFTTCTnG1amWbwutPdVtxWe2uSuGcq/Cn/BI3f6FW4RZLc9IJCeo65SE78ucL+jhdDOEPq3pP4PgbSXIZdhVE2NXt8iPc8qP3fKWZy0MesDtXYYcGxxiwhVM0Wew988wzV2JNLskX+Yd4xdZn8lLuOn8m4Su5oWB6GkeczZUf7yF+MeBzWIB3tmsY/N0l+MYNSyET+R+vONTBSZyOABAZYpPgHMPJnCL4OnkBUJFVbI4FUM5CZsg+ZBpSEUiEZO8PGZpH4HXN5uuL8e0pCpTlriAgXSDNmHMVQbX9pLNKJ+EzJMmWHMjaZ4BmTgC1f4oMrXysXLK8jg4A79/8BUR8qBjylSRxeA+syEgCI3tAzONmxjKO+SQZ4auMQXcJwCfm4m9Fho+RveslklWDRBUrPta90EUh8R0/D3VkPhNnvvXeeCFFCcIvkt0+pxiYy/iSUVzYNJ/ibqxstyBYP8O3yshjcqsqSXR+gS/YNB4fZAvSwa8woMFBeHCLxPyb/8WK/21dwKAtAPjm9yGsEudaBfF9/kyHPCAIhb06WXrpjvlMEZVPdPJKTzHwXX7/AW9sim+dY5sVXsVMgyCHxL0WOQsb5mSDJgFJ08vNfxLssinYFRv+Effgji/oJfawyxe2AZMHdIJTevlM4YQL48J0xLmZ03vxcq2cM5+Gwnz8Ahfs8vBC9BIz+subrMSskHAE/8GReV1nfHObKzgQV7ld26aAGJ89norjd+MowuMosrPJRAg/wkkAz1jgloSMByZAFQQOVAmBBokgQ38IyrOtgBDwGMsRQfgCZpkNfEgDWCW58foicZCzAJnXuearu+u5ClAJLCC71nwOY/UPtgITAEgQZOAZ3pA9ENVA8J5+rqGfPXlj+9y5yAfRA6KOjZ8URWRZ+4nfzc/vkou/M4b3/IoorKKA0p9fEAt+BWagRuzOkxwIjs3O8blr6TVE+OanC8JDVtHN/Ob2b09PiLNCAx9IjI+M7RrnzjUucCDZdF7Gdr2tMpgyzqqK+aMzUkAOihRiZLcj8TCnn/azSWzFL8UOWdKRjbAqvnDO3j6xRhAIEnauWMubEGtN+K4XQ48ciq3YmVds4Edj4bcDtlfpGZ0iSNxYyIvvkLAcEpNa2OAcRIxAkZoGC77EmfAVfdMswK5xzCn+/KaR4UdPseQ/L3FeSNsBb7BmZUAntvMvW9PAEOf6t8/Fhx7moEeNczoierliVU139jjP3K4VV4K88YTv8RWcOocYk/6w5Xw+9hn7YpuxYNrvCthHbxgRl6WQNe5J6IlvlmZKoBdM5KvK1/tnnC8QAgg0AOLfpAZoxJiCgsBtBXEoxwKOIPTFXDor53qP0JxvvqHxZxJ2sMFYyJ8eoyQgph972EVH87I559RS+8v4Vgde/dt3GYufHOzNPBHnOfiXrvG5MUj8TR9j0Mc5OnH+SSL53hg+Z6/r+U4y1Tb0JTZk/tzYSqKZ2xiSxXyKp/GMrVCRvl9GiTERqUR1jeQzdkhkIRI74kuxqH3p835sxaOOba6lY/yLLOg5hFWCVB3OZQu/GJtYydi+sY2osHgE0fPsxqafa0gwYp7Equ8PeumI4cv3ySHn18KG+Nk88ti59GJ3JP4awq7rzV9j11H7isTP9PIZfcxT+zWS+dhcx8YYvnN+jXOvcBwb+MbYXknsM47P4g+SWLLDXLHN3LENFujpGvOlwMa2ScuSEH6TJk0WT2rC1wG7X+BHTE2a9GW4HWvSpEmTJv9z0gi/SZMmTaZEGuE3adKkyZRII/wmTZo0mRJphN+kyWounqDxJJPHLD2l4ymTJk2GpD2l06TJai4eK/QIah5l9fx3ntFv0qSWRvhNmqzm4plvz5k78uy3572bNOlLI/wmTZo0mRJpe/hNmjRpMiXSCL9JkyZNpkQa4Tdp0qTJlEgj/CZNmjSZEmmE36RJkyZTIo3wmzRp0mRKpBF+kyZNmkyJNMJv0qRJk6mQrvt/1GA+zDKyT+8AAAAASUVORK5CYII=;" vertex="1" parent="1">
          <mxGeometry x="135.55" y="268" width="168.89" height="24" as="geometry" />
        </mxCell>
        <mxCell id="wlm9aBcyxREOP3yCC78D-26" value="" style="shape=image;verticalLabelPosition=bottom;labelBackgroundColor=default;verticalAlign=top;aspect=fixed;imageAspect=0;image=data:image/png,iVBORw0KGgoAAAANSUhEUgAAAMgAAAAnCAYAAABKSgfJAAAAAXNSR0IArs4c6QAAAARnQU1BAACxjwv8YQUAAAAJcEhZcwAAHYcAAB2HAY/l8WUAABLqSURBVHhe7dzVjyXVFgbwPTO4u8vg7u4wg7sHCCHhgfDEC7wAT/eBPwJIIEiQkOAywAwwuLu7u7vD5bfS66ZucbT7nJ5uqJVUjlXtveT71lp7V3VP+fMvKY000khLmTry2kgjjbSQhiCNNNJBGoI00kgH+ceuQepmTZkyZeTd5JCq/pNN92HLePrmH11BOHIy838y6z5sGS/f9FRB8pTff/+9/PTTT+Xzzz8vb731Vnn33XfLJ598Un788cfy22+/lalTp5ZFF120LLfccmW11VYra621Vll++eXLwgsvHL+RYTKeno5vvvmmfPzxx+WNN94oa6yxRuiy5JJLjpw1cYV/+fLll18uP/zwQ1liiSXKRhttVBZYYIGRM3qTb7/9trzwwgvl6aefLu+//36M207EY7755osYmW/FFVeMuK266qpl6aWXjrhl7OaliCs7Pvroo/LOO++U77//vmy88cah5zClK0FSMcT49NNPy9tvvx3Of+6558rrr79ePvjgg1AWQaZNm1YWW2yxssIKK5S11167bLbZZmXTTTf9G1GGRZI//vijfPfdd+XFF18sjz/+eABkn332KTvuuGOQZKKLxPPSSy+V2bNnh9/57qCDDiqLLLLIyBm9ieRwww03lKuuuqo89dRT5ddffy3zzz9/+L3ue/FAEHMstdRSAbjNN9+8bLXVVmWLLbb4W4KbVwKDEvLDDz9cnnjiibDnyCOPLFtvvfXIGcORaf/5S0betxSB+uWXX8p7771X5syZUy699NJy0UUXlUcffTTIwfmZZZwre6suADp37ty4DnE4evHFF4/3wyIIJ7755pvl+uuvL1dccUV57bXXyoYbbljWW2+9CP5EF0nn/PPPL1dffXX4XPWQJYGhH5Eknn/++QCShCZGCLDgggvGWAiRRwJfxZKdXffkk08GGCU7FUVXIG7zUthw0003lcsvv7zceeed0aUg8Oqrrz5yxnCkI0Fk5K+//jqAdt1115XbbrutPPvss+HYDTbYoOywww5lxowZZY899ii77LJLsFlQV1pppcg6P//8c7RgMtpXX30VIM1ADYMkCGIuWVOg6b/99tuHrpOBIBLL3XffHSRXhQFgtARRRcVKVVpmmWXK0UcfXfbee++y8847R0V1iJ9j2223jbitvPLKkeSQRdy/+OKLsuaaa5Zll132f1VsWMmtm4it6vHMM8+ETTqUbbbZZugE6Vg3tVUyyb333lvuuOOO8uqrrwbwOfmwww4rxxxzTDn88MPLwQcfXA488MB49fnYY4+N8rf77rvH+a+88kq56667IvhAoM8elggwYjgmm9BdqzpI3SUz6y8xO+CAA6Jlqx5i5hBPsdt3332jJRYjlURVk3Qmgj/5BlHGU1pWEIEimKpVuvbaayMrK7Uy8hFHHBGOxGCLYOVOltFG6WHXXXfdMn369MhcspDS/eGHH8ZaRXVxWBASc2knZCyE5IDslevZSpCUWhlSlnNdtmycZ3FqAWftgZTG3mSTTUInC91sJ8zheofxXO8789PR9wBifOOSqi753viqpGscqbt5quenONe49Dc2cS4dXC8BPfDAA9GW8qfWsJohgb0XqVYQ/hef4447LtYWWiafq4dqtcoqq4SfxEzVt7gXN7ESS0fVLraLBzvYlP70nh/Z5Hfn5zVVn/AVf6QvfDa+MTIGfjeOV7F95JFHwq4vv/wy1pQ6A37q5vexSNsWy6RAZh0xa9asAKKyfMghh5Rdd901yNCuVfLdQgstFI73KkjaBoa5jtMFxHmc6TdrBtkKUZDHdXVAcJyKphoBkuuMpwURTJXOAvexxx4LkGWgvLf4FXxj0uf++++PMYwnw2oBlW/2+k1CsAlBZ+Ria+4mpc3IY8OCPvfcc08kFH17rrXqolU156233hrzGtPc1gmqK92tG4zD/8DjNxncnHzWi1QJYiztperh+k5rCQCjE3JINF75zDpOq5fJiCCI9SYf8Tffs83aVHvrWsAWR2PWwSsGduv4gl/E1rkPPvhg+NJYbBA7OPTZ985FFr43hnVwYka30sm+0UhLgmRmeOihh0IpBqsKe+65Z9ltt92CvdWMXBeOoKhzHAzhMMYAhF5XGQdsTuSACy64IEDjO9nKeQnIFI4BGE4FJKC2UwaUCAJk9913XwTNucghEwGY32VQ49IHqGUkOtHXe9cjB6IKnoxuqzhbjCSu8x2CpMJqP/XHbKa7LN0q2xsXkGx2AAQ/qhCITh/+BkxZmO4ASD9glGysE3qR0RAkbRJTdrOfr9liLcR3ea3xtcqSiQUzv/Ef+8wrnvzGFvMjSB7mIHZEnX/zzTeHf4FclyG2yEB3fuED3+fYrpP44EYcxdm41kpi2+96rZu0RDgwUADQKEkEfv3114+gUqIdOVI4AkgERfZxrayIBMbkEJ/NxUgZXmAAAkB8X5dqVnWuICGAc+mEKNVMQkdtIYDIhBwJbK5BWCAQWJsPt9xyS1QDwMxdGwGQHe2K+V1PLjipm7GQlD7Gku0A3/ethJ3mFej0AT/RXdVxSAr5HXvozSa6D1vozTZ+Thv4oUoqseF3hNZ6AzQws9t59IYdmd45duT4zmd+T5GAVWcYk4CRwkaQJOFcOOBX5/BHbvAk9vgJIXzPT7CW5BuktGxqOQdQKEhRWVN/qjWiTD/CKORSprVqMgAgAZb2aBDCYSrcSSedFNlO4GRpdui97d7I1PpVwQNSAuze0wcI999//1is2iGhJ/IgB0B/9tlnAWhrGmCtgmYswj+qIB95Pffcc4OUkoq1ns0PIEDaYQtiiIvEIBEBnJuF1ZirxEB82WWXRVKDDdXl0EMPjRgAqiR4++23hx0qq4oC2MjunLrAmIqDNCqWtZdYIatdtryPdfHFFweG4NKmwwknnBC/S4hJkkFLxwqCvViPqRQWTGDslanOA6RqJjRejisggxDzCIDxBTQrgENWzoWoYFYrn/l9ZtvJJ58cDt9uu+2CTG7S7bfffuWUU06JIJjDGkVWVPIHJeZHOCRweO+7zJD05ju+H62wU+YH+laHNkZCkLm1iwgA5PyItDZiiHNle7+rmLqDo446qpx22mnhqy233DLO14rzm+Tks+usr7Rj1eqUovoAt+3mM888s5xzzjnlrLPOKmeffXYkCclCjOBInMUVKfhFbMU4K8ugpS1BOBSIvacMZwkeoPRDkAy26wVZ325c2aLuqLEIp5mHjpxtXgfHIQYb6mXY/EApA9qS9gqQSWjZzoaEu8qIZ3fHGkXPPCjd6UN3etPf+/zOZ3qnTaMRgARAbRBga2XyYIs1G9Jrg6655pqomFpNOgAmgOsc4ECLiBgOCVQ15beddtrp/3YzdRt2OPkO6MVetdGiqlC5M5jiM38jlkN1cJ1ktc4668RvfJAkoBt/+E5s+Sm/H7S0JIjgaz84N5VJ0I1GcgyGGJtDBkmOsQhC2HjQ4lRbCQKcNhQsjgWd3oIs2wLMZBCtsootg1955ZWxW5iHu9JapUsuuSQ2SbQwyKKiaDO1pmwHUPb63tpJmyWxqBi2WlXuKja8R4q8madtQi5rF9UXuaoiGfCzG87mSrBXj3klg69JbQQhOJmxw2J7v4K0Ai2QyrTPdaGr4OV6yZpFFgS8ySBJELtnHtVQIfK48cYbYxcpt08lRL4AVGsx6wqVQaYWP12FtZhXoHcgQrtYqrqu9yr7a7WQRPKtivHFwXiS6ESSlgRhsNJFce8ZxCn9goJTs2JkywaEMjOHzWuS0EGAZcB2+iAI8jhPppP9tCz1IE9U4W/6y/YqJfBXDy3NzJkzY4PCnXTrBk9CqB5aTHbzgeTG9lw78pmKC9D81sp3MGQd5ZXvtNU2AOotFpxpv71OlOSZ0pIglKQw4yiN+bJmOqef9ohjAcr1XpFDtuA08/QjSbg8xirAgxiOToHxu3P9zh4B5od+hc6uH4TuvQrdtS3ug5x44omx01c/fH/88cfHo0Mqx1577RXrC3FyPaEzm7M9Rgy/AX474TP4yXNcL7HwQVWMM8x1xFikLUEAWGvBSfpHC9PRtBbOd7Mo72/IPNoV2adfghDOHW+Qmas6H73Hovt4CnCKoerhKQgEqB7aKFvJqojtVNvxFtutWp26zb3EoO67VgQYrT/HQ9oSBPPtR7vjrbS6MeemjgVqr9kTGJDLtbZIkcXWoDFltcxOhOM40tjtxve9Mk2fepkejWTLkFmtVcB9Z3GqipofcJBbJST0zqD7vRMBzGcu57WaaxiS+iUIux15ftpE8nrxyq1+PtERiEc7kRAl1bSZ73I9UpVWc04U6UgQOxS2+rRaHhvweIcHARndaZvW9wAMVHZ9PJ9jcWYcfW0uirP0pvOrBKiDCPB8b8Hphp333aQbCOko0G4UJgGqYk6k9rvEYDz3SKqtBxscfgMY59dJ4jO76O7ohSB+73bOeIoYSQq2cb3mnzHwX90e79nMVvdT8qkJiYX/YGusMl6+aUsQbAdk9wA8JoIU7oq6Q21P226GzAAQ2ZN79Rl4na/i2DnxABoA2tN2r8FrrkFkDb2qzGQMDndtkoSjvcpG5nQXNefuJnlt6udz1bE+GwvpbV2qJnmOVzpYVLIXSZDCYtfWcJLbd9mOGAsYMmPm/D4jGLAAFX1aSTWLutZ5Vd3npbBXUgNw1Z8d+UiIxJA6Vm3mM89Qsd31dql0D2I/Gkn/iI856nEdBmk6Nn4cAdD+XgCogci2oD1z++UeIfAdEMkWXn3WUrkje95558X5vuNYf1xlX1yblcJxMpKbUciFANoxYDIm5wOdMRHUliQStRPj5YIaqehkDWSMVlVPoNmiypk7qwBCq3oexPPIhIwpe9r5oSsxB9CojMgOMADhXoHW0lhs8NnzXvnHPu0kExMbXGtO+hurl4o5TOFTlTP/QpNkPNxdz1aKnnwnOfrdDUkEcZ8JluqtdT/iOr4RH/PxJf9IbMgyDIJ0/ItCAaMUEFCAAyjlXoDMoe2SJQCJQ9yB1YYBlSc9PekKpCqRO652Ujg3AUWwn4FuIDlkYYCozmVcgQBU8wI6R8nkdlws+pGMg1yLuA7gV86NxZFZ2pFF65dABnSA9N6B0OZU+TweYSw65+P+Ni8A2XzGpndWB8EzBpAgHMK4g5134J3PJ248ulsMNCkIYV56JVFlyEwICEro20nM3e/TvN3EnK4VLzYAPZ9KAJnIfMdmNlSfrLYx41EUCVIFMZZr2Smm7EQgGLGtjIx1Ma/ntVRzr/wCQ3SBH/EX31bXjkW6EgQQOFj/iCzAyTigQBCHzCkgMomgyJSIA0Ayjh2UrB7GqhvhPAYjh4ACqPdAx8HGBlJBkIGSXMaqE0QGS8AiE7ACpu8Amx2cmgTheA/CIY0AI6Rqpe1ih2AYm+7uDXjNhSoBGgFyPaDQ27xZSYGFf2Q8C1RB5D9VyFhVgqSudDeOA2kQit7AZb6cu50MkyDwAAfixWY68hm9+TPn5V/fSa4eGbFT5k+y+Y6MhiB8KBm7LltxPqeL9k0SG8T6piodCUIEw6QU4GBHPlrAQTIGAACywFKckRbjnqnxZ52A5SlbQebkagY0DqfLjn4DcuMinmd+jM2Z5gUoWRwggQlwqwQhxuBwoAIuAURWgLWWUnXMkQRBONnN1qbztQXaLb9JBv7OwM00AfZ392l72mBeQWebICJx9t58whbE8FyS55oEn110rhOE8HVmZ6TmX8L/7k1kC9ZJhkGQFPoBoqTCdjbT11z+yIzdYodE/C0+HjjM9irJ3S9BiLnZhnjiKqYIYi6didgmAQclPf9fLI4AOqylGCd4ZaiMjMWcbwEGEALKiYLic2bdKjlSXCvzZ7sma3OAcV0jIByoLZGRZGXgESD/1icdQ09jCZgxBAvojU0vAFdF/H7hhRdG+0TPU089Nb4HJiQH8qycvtcisiX757QhXYewxkQI+gugQAp0jiGAPhsfOensz5dl1RR68q/qpfoYR2trbuRwLpvbAShF8sgsTi/+d8/DON2u7SZsphObVQ4EhgXziBfh63xoUYLJuPFp+s75kp/2UyKyxnUvJjuVupiXf/iFbfwMj+JuDr5hn+sHKX3/61EAZJDMCEiU5DAEAmYBEESZgFM4q1vWShU4wJjGFgDjcqjMAWicYSzk8bv3CGiOauDp53fkNV6SV5UgApMEsXlw+umnx26dc4DL9d4blw2qRic7EjRIkX5hC3/kGPTnIxWW/r7Pp19TjOMceiMKG3xmtySBoOzMLNxOZGSZNZMXYHomKpPUIISureJFEgPsdoifOFaTI734AlGMBdgSCXJ00pGP+cZhPjGBNX5kXytyjUX6JshkF46VgaoEOeOMM6IF4uRBAaiRf4Y0aGikkQ7SEKSRRjpIQ5BGGukgDUEaaaSD/OsIYpfD7pG72O5t2Ke3DWmnp5FG6vKv28WyBWp70f697VbbkW5q2kKt7tM30kgppfwXdN/82T715dsAAAAASUVORK5CYII=;" vertex="1" parent="1">
          <mxGeometry x="490" y="268" width="112.56" height="21.95" as="geometry" />
        </mxCell>
        <mxCell id="wlm9aBcyxREOP3yCC78D-27" value="" style="shape=image;verticalLabelPosition=bottom;labelBackgroundColor=default;verticalAlign=top;aspect=fixed;imageAspect=0;image=data:image/png,iVBORw0KGgoAAAANSUhEUgAAAJkAAAAyCAYAAABPh3mXAAAAAXNSR0IArs4c6QAAAARnQU1BAACxjwv8YQUAAAAJcEhZcwAAHYcAAB2HAY/l8WUAAA6qSURBVHhe7d1HjB3FFgbgY5ucTc7BJuecowGTg4SABRJBsIA1Ehs2bw3sCAJEEAiBwCCCMNFkbDBgcs4555zf81eaA02/bntmfC8zhv6lUt/prq7w139Onapqy2P+OxvRoUMfMXbg2qFD39CJrEPf0YmsQ9/RiaxD39GJrEPf0YmsQ9/RiaxD39GJrEPf0YmsQ9/RiaxD39GJrEPf0YmsQ9/RiaxD39GJrEPf0fqpz1dffRXfffdd/Pzzz7HIIovEkksuGYsvvvjA038HUPP777/Hjz/+GL/++mssuOCCsdBCC8UCCywwkGPuyDJwKSlrbhgzZkyMHTs2xo0bFwsvvHAsuuiiJbkvjRb89ttv8csvv8QPP/xQeJFwVEeryJ5++ul47bXX4osvvohVVlklNtxww1hnnXUGnv7zkeL49ttv4+OPP45vvvkmlltuuVh++eWHZGwG4qeffoo33nijpPfff3/gSTuIy4AR1rLLLlv4X3311YuxE/hICw03EqP5/PPPS59WWGGFkpZeeumBXH+iVWQXX3xx3HzzzfHyyy/HDjvsEEcffXTst99+A0//+WChSHz00UfjySefLJ59t912iy222CJWXnnlgVxzh3K+/vrruPXWW+O2226LGTNmDDz5f6R4CIkHM3sQ2AYbbBDbbrttbL311rHiiisW8Y0k0vief/75ePzxx+PFF1+MXXfdtehkrbXWGsj1J1pjMsRQ6FtvvRUfffRRfP/99wNP/h0wPRLWzJkz48EHH4xnn302vvzyyyKaocKg8IQffvhhvPnmm6UcICKWn2mppZYq18UWW6x4CvmfeOKJuP3222PKlClx//33xzvvvFO8Y4tv+Fugbty88MILce+99xah0YjQqgld4N8CA8laX3rppXj11Vfj008/LffmFbzVqquuGtttt10ccMABcfDBB8chhxzyR/L3/vvvH3vssUdsttlmZdp8/fXX46677irJwPKwIyky0Ia33367tIfAxGVtbepENgfwQDyaa68g3powYUJMmjQpjjnmmDj++OPjhBNO+Es66aST4pRTTonTTjutiE48JvaZNWtW8WzvvfdeTwQ/LyAobRhMO4YtshwA00cORCZ/15PGNA2WxtbfmVM5+awN1ffa6oS2evO+d+v3mvIOFTyZAH78+PGx0korlfiunsRhYpuNNtooDjrooNh9991LXZ988kmZboUw2lBHUzurKfloanf93cybPFRTnRsp79FDvY7Br8VrsOISp4gbVltttZg4cWKxUnGcZ+IOFVvSZgArH3IFtQkrL/kFkeJAqzdliQGVZZrScEt6Aa8yDIR8BsugVVdbzzzzTEnqXXfddctgyVsH984jqNdv5a633nplheT+c889V4J+gyr+QOADDzxQ2mqlvfnmm5cgXBuGCoF9rh4lfWvDpptuWgJrK1qcEJo2GMiEAcWjdnqGN7/dMwbqEutpL68o9tNu45WwtUK8QgOxFT7ks7ugPBwZN/Gi61NPPVV2INSjDl4WjPOOO+5Y6lliiSXKvWGL7JVXXonzzjuvEM/1H3nkkaXRgtPHHnusbH9omEatueaasfPOO8c+++zzx+osxYE4DT7nnHNKB7fccss44ogjCln33XdfEYzYSNkEsMsuu5RVntWW2EaHq2RZxZ155plF2Mcee2wcfvjhjSITiD/88MNx7rnnxgcffBCTJ08u+W0ZqPOqq66Ka6+9tgg8rVIMoi5tOPXUUwuJwxHZUGCgiWOZZZYpUya+pGyTKwPAF8OwULGCZRzya792MtytttqqjAEjIQZjk+OAD2N5+eWXF2HttddeZVpnhMaBuLWBeCR5xWIEBjfeeGNMnTq1lIl/fKbIehKTGSSrDEKxEhMU6sQaa6xRRKDDU2avji699NK44447isfKxlWBvMyrwSxLOZbwyvKOldZFF10UV1xxRRGlunoNQlt//fXLlgFh8zYGWzsE7LwYjzyUTdnhQp95FokYeOjqhmfOBNdff32cf/75hRcLBeInko033rhMywSBUwLAL0PivaoeEYiWdyIu+XlzAjSO8vO6ysSBMcGNutZee+3CF2dizORP9IQlFq6xSNAAnstAIcAzFsad8lis0hRgwHibhM7lFIZY05zVFavTCd6MAHlKZbIuAjDQrLTaqXkFwqzutO+6664rm6h+77333qV/2q59/fRi+MBpbiPpvz7yJpLB9pzApk+fXozXniYB8limfuIyVfJMVsnCGzOQcrzPcPSV90ngnhPQZ89tQDM4feUVhSC8oXE0hT/00EPlHVPk9ttvX8bemKUXg56I7LPPPisV7rvvvmUqUYnGEZnGmh7z9ID3QYbGVEUGOqHBOs0quFxl+RvJyoC77767lMNlKweZvRQZS9Q2hvLII4+U/ukPEk3VLHi4IB795LV5CELJmMwzwEHm4UkYJwM07WubZNrGL8OzySuPMdBGK1LGgPcUGUP3Po+H//Q+9RhZe3gsQuMJd9ppp+K1eCxtUjdvTugZu7rPIdisJ8g6ejJdarAjp6OOOqrM5VZFOkgAFE58vA2vo8Ma17RxhzgBKqEqh0WyJkTpFA946KGHlvvIEBCzTNY8P8F09O677xbvYp+pmngbm5s8tWntyiuvLJ4Kd7k4wTWuxFzK4E3wiR97bTyufATEo3iPWA477LAynSmLkZpdTKPEWoWy8c2grG4PPPDAMob29Rj/UNETkbF4qmcZRKETrFNjCZBwdNRvHWKhRFIHMfEYgn9E+ls5pmFXf/MiXDZ3jSCDhWxeID3BaAYvZYDFlo7uLrjgghJLZbrwwgtLzHnZZZcVkREcvhipaWqbbbb5Y7o0lZopeB3enhdhgIRl2kzujAMvJ2BnwDy/mUHshkPlV8GzyYNniyteDPfuV+PBwaInIiMsbtS13ggd1ThC9CyngiZBZD4CI7YkCVJo6uAlxWOmG1NZLqPnB5ExLts+zkPvueeeuPPOO/+S7OrzXLYH5GOghMUL8e7ExljxYXtHHoabhiwx8uQt4R7uCNG0iS8CY6D1L0OMEy+YY5rjkGmo6InIWFFaV1Mj3EcMi2rzON5jLTqnLPmbkGTJhygWaYXZJty5YSSESWi2HYhDMsiS3+7rIyMz/YmvTjzxxHICYNvG/RxsfWdg3sGHhDd81yE/8eBW8psHxF09dFF/rqhd5xU9ERnx1D3YcKAcnXJFShOSLIIEBBMYwc0PMIB28E8//fS45ppr4qabbipfu2S64YYb4uqrr45LLrkkzjjjjDj55JNjzz33LOFBXUDEQZgMxbPBjAFuceeKN/zVDQ3H2pn55hU9EZlGtXmxxJyeJXR2btOeZyksQAJC6mTIl6kJvIm6lNUUH/YLeOKNxDumQSu1enLfprUVYp5YCCX0scpj9t29wRgaLtKLyuv9pnHzt/tzG9PBoici6wUQgCjum3W2Eea+PKYKJPB8puskO5GEtgnIfZ7ANPV3igyqgziY1DbQ2Xd5Mmxo8kyQfNgKyXzezzCmnxg1IgODbovDuScymiCPYF/QiiDxhdVUEpUDk6JFZhNS0HnGOj9C33lFBoYTCwFiaxMZ7mz3CPb1ObnL0KNfGHUiQ5QjD3tpLC8JcyUYm4/2xuSzzLYsrwbDphUWSqSIJ1qEZjnKJDC76DZ3M3BuQpYJ3qu2ZzTA9oLp1PYEg8GLVWmTdzY7MEznmlakOLKPKdbjDYeDwXIzqkRm8FmZQ14bhXmcYh/HfftLzkadqxGGuMb+XFVklvK2N5DqfRu29oO8z2sh2oanw3HlqLOVnNkekZdAoEE0OBLxjsQ0W4d+4sAxF9jMtS2if/qpzXjQbwK0aUtk7hPoJptsUgzVjDBU4CZjRAbtAN0ZNk9pvKqzw6gSGeHwLERmz8g5JW9DLI4v3LP6Qpj9NAGynW2/E0hzDxyfOHqy98Q7GgRfiCjDWR/RsuKmmAR57hsAIuQ5eQnvEyehEehIwhYDgdk/M/Xh6pZbbikrVsdRNmrNCNo7bdq0cg6rD7w9gVlkEOpwpkvG5z1X+5W4Vmd+is0IE/3/jGAIMKiW4RJR8ELcufusg7XY5bbhaBvAWZnpokoSy/bMF6TyE6xTAXtICEmrczYpL4sj4jrUaUph8fL6tp7oCdWJhOMbu+cGbKTAEHBhL02feDGDzVB5fMLTZ56Ll5FHDIYfR0SO/0y1yhkqcGMGkRi9mQfPjNwXv/5hSf7rtlZPpnGsmKXn8rkK7jLjH1f526AThKM8ye+mjhGLRjp746XULQYjNh1Qh68jnJHaAbd7nTvSCe87p/NtGAt3OpBTrbJYmK0B39H7Ds4xlTLUXS1HXe6zduWpi6c1HWiLqxhyMNBX5eFJn9RV53M4UC6RGExnuv5FmTNGBsXzMgiei4EYJ/+a6Ljjjivf2DmDJMIci2yj8ckxbRojcB83REqwDtC9p04Gm1N1Ytx/ZmPg91/AY5jPxThO2PP7oYTdYlOGwrlseXS2SWwGlhWZdlienez8HIRnQYKvHTRSII8I7pwHQYJ9Ih7L3hGrJR7PEVwfLPmRx0uZRrVfPcoQ6OqHgSBW/THl6YP2EJ98ykSksvL9TI5axIH6rL/aMCfoM29pAYJPA2iA1cdL4qttMAcDhkG02uXsWB+1iQgyPnXfaQHjdeCtn7kqzbrxIHYjDrzh1zmoMqrGl1Cnegia4ciHO+NnnNSpDmj9d5cIUTGCNEahSE+wank8NyieSU2ECZDlzVWcfOk5eBlndWeffXaxOvGUD+sI0XPla6Jy/a0tUna8Xl92R53qk5SR0Fbvu8pb7aN2pcCynMxTLUfd2d9sRxu8Xy1DynfVCU2cDQXZVn3WRnX5nfcHw13yxTv7LR9vJm8bx65Zn2veT63gEkb8fySpikwcRmRnnXVWiXs0tsP8jzmbYYcOPUAnsg59RyeyDn1HJ7IOfceIi8wKxPLXloPtBftRlsTzuuLqMHow4qtLy2Z7ZbmPZOnb9IFeh/kXIy4y1ecejSsPlvtPnTf7JyDif9PgheY45shaAAAAAElFTkSuQmCC;" vertex="1" parent="1">
          <mxGeometry x="501.75" y="345" width="76.5" height="25" as="geometry" />
        </mxCell>
      </root>
    </mxGraphModel>
  </diagram>
</mxfile>
